<mxfile host="app.diagrams.net" modified="2023-11-28T16:31:08.415Z" agent="Mozilla/5.0 (Windows NT 10.0; Win64; x64) AppleWebKit/537.36 (KHTML, like Gecko) Chrome/119.0.0.0 Safari/537.36" etag="DC51BPnGVeiPIs3tjrTt" version="22.1.4" type="github">
  <diagram name="Page-1" id="n2fFiN9eH3OxtznAjrIF">
    <mxGraphModel dx="1352" dy="321" grid="1" gridSize="10" guides="1" tooltips="1" connect="1" arrows="1" fold="1" page="1" pageScale="1" pageWidth="850" pageHeight="1100" math="0" shadow="0">
      <root>
        <mxCell id="0" />
        <mxCell id="1" parent="0" />
        <mxCell id="aMPU4QFuNapaRVcZIHm0-3" value="" style="edgeStyle=orthogonalEdgeStyle;rounded=0;orthogonalLoop=1;jettySize=auto;html=1;" edge="1" parent="1" source="aMPU4QFuNapaRVcZIHm0-1" target="aMPU4QFuNapaRVcZIHm0-2">
          <mxGeometry relative="1" as="geometry" />
        </mxCell>
        <mxCell id="aMPU4QFuNapaRVcZIHm0-1" value="Inicio&lt;br&gt;" style="ellipse;whiteSpace=wrap;html=1;" vertex="1" parent="1">
          <mxGeometry x="170" y="30" width="120" height="80" as="geometry" />
        </mxCell>
        <mxCell id="aMPU4QFuNapaRVcZIHm0-5" value="" style="edgeStyle=orthogonalEdgeStyle;rounded=0;orthogonalLoop=1;jettySize=auto;html=1;" edge="1" parent="1" source="aMPU4QFuNapaRVcZIHm0-2" target="aMPU4QFuNapaRVcZIHm0-4">
          <mxGeometry relative="1" as="geometry" />
        </mxCell>
        <mxCell id="aMPU4QFuNapaRVcZIHm0-11" value="" style="edgeStyle=orthogonalEdgeStyle;rounded=0;orthogonalLoop=1;jettySize=auto;html=1;" edge="1" parent="1" source="aMPU4QFuNapaRVcZIHm0-2" target="aMPU4QFuNapaRVcZIHm0-10">
          <mxGeometry relative="1" as="geometry" />
        </mxCell>
        <mxCell id="aMPU4QFuNapaRVcZIHm0-2" value="sNivelPesoS1=1&lt;br&gt;&amp;amp;&lt;br&gt;sNivelPeso=2" style="rhombus;whiteSpace=wrap;html=1;" vertex="1" parent="1">
          <mxGeometry x="130" y="150" width="200" height="80" as="geometry" />
        </mxCell>
        <mxCell id="aMPU4QFuNapaRVcZIHm0-7" value="" style="edgeStyle=orthogonalEdgeStyle;rounded=0;orthogonalLoop=1;jettySize=auto;html=1;" edge="1" parent="1" source="aMPU4QFuNapaRVcZIHm0-4" target="aMPU4QFuNapaRVcZIHm0-6">
          <mxGeometry relative="1" as="geometry" />
        </mxCell>
        <mxCell id="aMPU4QFuNapaRVcZIHm0-4" value="abreGavillaS1" style="whiteSpace=wrap;html=1;" vertex="1" parent="1">
          <mxGeometry x="170" y="280" width="120" height="40" as="geometry" />
        </mxCell>
        <mxCell id="aMPU4QFuNapaRVcZIHm0-9" value="" style="edgeStyle=orthogonalEdgeStyle;rounded=0;orthogonalLoop=1;jettySize=auto;html=1;" edge="1" parent="1" source="aMPU4QFuNapaRVcZIHm0-6" target="aMPU4QFuNapaRVcZIHm0-8">
          <mxGeometry relative="1" as="geometry" />
        </mxCell>
        <mxCell id="aMPU4QFuNapaRVcZIHm0-6" value="tiempoApertura == tiempoProgramado" style="rhombus;whiteSpace=wrap;html=1;" vertex="1" parent="1">
          <mxGeometry x="102.5" y="360" width="255" height="80" as="geometry" />
        </mxCell>
        <mxCell id="aMPU4QFuNapaRVcZIHm0-16" value="" style="edgeStyle=orthogonalEdgeStyle;rounded=0;orthogonalLoop=1;jettySize=auto;html=1;" edge="1" parent="1" source="aMPU4QFuNapaRVcZIHm0-8">
          <mxGeometry relative="1" as="geometry">
            <mxPoint x="230" y="570" as="targetPoint" />
          </mxGeometry>
        </mxCell>
        <mxCell id="aMPU4QFuNapaRVcZIHm0-8" value="abreGavillaS2" style="whiteSpace=wrap;html=1;" vertex="1" parent="1">
          <mxGeometry x="170" y="470" width="120" height="40" as="geometry" />
        </mxCell>
        <mxCell id="aMPU4QFuNapaRVcZIHm0-10" value="Alarma" style="whiteSpace=wrap;html=1;" vertex="1" parent="1">
          <mxGeometry x="-40" y="172.5" width="90" height="35" as="geometry" />
        </mxCell>
        <mxCell id="aMPU4QFuNapaRVcZIHm0-12" value="No" style="text;html=1;align=center;verticalAlign=middle;resizable=0;points=[];autosize=1;strokeColor=none;fillColor=none;" vertex="1" parent="1">
          <mxGeometry x="70" y="168" width="40" height="30" as="geometry" />
        </mxCell>
        <mxCell id="aMPU4QFuNapaRVcZIHm0-19" value="" style="edgeStyle=orthogonalEdgeStyle;rounded=0;orthogonalLoop=1;jettySize=auto;html=1;" edge="1" parent="1" source="aMPU4QFuNapaRVcZIHm0-17" target="aMPU4QFuNapaRVcZIHm0-18">
          <mxGeometry relative="1" as="geometry" />
        </mxCell>
        <mxCell id="aMPU4QFuNapaRVcZIHm0-17" value="tiempoApertura == tiempoProgramado" style="rhombus;whiteSpace=wrap;html=1;" vertex="1" parent="1">
          <mxGeometry x="102.5" y="540" width="255" height="80" as="geometry" />
        </mxCell>
        <mxCell id="aMPU4QFuNapaRVcZIHm0-18" value="motorMezcladora" style="whiteSpace=wrap;html=1;" vertex="1" parent="1">
          <mxGeometry x="170" y="650" width="120" height="60" as="geometry" />
        </mxCell>
      </root>
    </mxGraphModel>
  </diagram>
</mxfile>
